<?xml version="1.0" encoding="UTF-8"?>
<svg width="628px" height="628px" viewBox="0 0 628 628" version="1.1" xmlns="http://www.w3.org/2000/svg" xmlns:xlink="http://www.w3.org/1999/xlink">
    <!-- Generator: Sketch 52.5 (67469) - http://www.bohemiancoding.com/sketch -->
   
    <g id="Page-1" stroke="none" stroke-width="1" fill="none" fill-rule="evenodd">
        <g id="Artboard" transform="translate(-85.000000, -86.000000)" fill="#D5F0EF">
            <path d="M632.451172,190.004161 L632.451172,479.147461 L414.726562,158.273438 L328.71582,158.273438 L328.71582,628 L407.109375,628 L407.109375,307.125977 L619.951058,623.106801 C563.215664,679.297401 485.160445,714 399,714 C225.582589,714 85,573.417411 85,400 C85,226.582589 225.582589,86 399,86 C491.676211,86 574.974949,126.149734 632.451172,190.004161 Z M710.844727,363.014641 C712.268083,375.145161 713,387.487107 713,400 C713,412.512893 712.268083,424.854839 710.844727,436.985359 L710.844727,363.014641 Z" id="Combined-Shape"></path>
        </g>
    </g>
</svg>